<svg width="63" height="63" viewBox="0 0 63 63" fill="none" xmlns="http://www.w3.org/2000/svg">
<path d="M24.0405 23.8082C24.6562 22.9711 25.5814 22.4059 26.6166 22.2343C27.6519 22.0628 28.7141 22.2988 29.5742 22.8913C30.4343 23.4839 31.0232 24.3855 31.214 25.4017C31.4048 26.4179 31.182 27.4672 30.5939 28.3232L22.9459 39.0752C22.3337 39.9214 21.4067 40.4952 20.3667 40.6716C19.3266 40.848 18.258 40.6127 17.3934 40.0169C16.5289 39.4211 15.9386 38.5131 15.7511 37.4908C15.5637 36.4685 15.7942 35.4146 16.3925 34.5589L24.0405 23.8069V23.8082Z" fill="#1D4ED8"/>
<path d="M35.353 23.9231C35.9616 23.0676 36.8905 22.4852 37.9353 22.3039C38.9802 22.1227 40.0553 22.3574 40.9244 22.9564C41.7934 23.5555 42.3851 24.4699 42.5692 25.4984C42.7534 26.5269 42.515 27.5853 41.9064 28.4407L34.2584 39.1914C33.6462 40.0376 32.7192 40.6115 31.6792 40.7878C30.6391 40.9642 29.5705 40.7289 28.7059 40.1331C27.8414 39.5373 27.2511 38.6293 27.0636 37.607C26.8762 36.5847 27.1067 35.5308 27.705 34.6751L35.353 23.9231V23.9231Z" fill="#1D4ED8"/>
<path d="M42.3359 40.5029C43.3968 40.5029 44.4142 40.0881 45.1644 39.3497C45.9145 38.6112 46.3359 37.6097 46.3359 36.5654C46.3359 35.5211 45.9145 34.5196 45.1644 33.7812C44.4142 33.0428 43.3968 32.6279 42.3359 32.6279C41.2751 32.6279 40.2577 33.0428 39.5075 33.7812C38.7574 34.5196 38.3359 35.5211 38.3359 36.5654C38.3359 37.6097 38.7574 38.6112 39.5075 39.3497C40.2577 40.0881 41.2751 40.5029 42.3359 40.5029Z" fill="#1D4ED8"/>
</svg>
