<svg width="73" height="23" viewBox="0 0 73 23" fill="none" xmlns="http://www.w3.org/2000/svg">
<path d="M38.4736 5.77878C38.4736 6.60761 37.8122 7.27528 36.9912 7.27528C36.1703 7.27528 35.5089 6.60761 35.5089 5.77878C35.5089 4.94995 36.1475 4.28228 36.9912 4.28228C37.835 4.30531 38.4736 4.97297 38.4736 5.77878ZM32.3619 8.7948C32.3619 8.93293 32.3619 9.16316 32.3619 9.16316C32.3619 9.16316 31.6549 8.24224 30.1498 8.24224C27.6641 8.24224 25.7257 10.1532 25.7257 12.8008C25.7257 15.4254 27.6413 17.3594 30.1498 17.3594C31.6777 17.3594 32.3619 16.4154 32.3619 16.4154V16.8068C32.3619 16.991 32.4987 17.1291 32.6811 17.1291H34.5283V8.47247C34.5283 8.47247 32.8408 8.47247 32.6811 8.47247C32.4987 8.47247 32.3619 8.63363 32.3619 8.7948ZM32.3619 14.3433C32.0198 14.8498 31.3357 15.2873 30.5147 15.2873C29.0552 15.2873 27.9378 14.3664 27.9378 12.8008C27.9378 11.2352 29.0552 10.3143 30.5147 10.3143C31.3129 10.3143 32.0426 10.7748 32.3619 11.2583V14.3433ZM35.8966 8.47247H38.0859V17.1291H35.8966V8.47247ZM68.5987 8.24224C67.0936 8.24224 66.3866 9.16316 66.3866 9.16316V4.30531H64.1973V17.1291C64.1973 17.1291 65.8849 17.1291 66.0445 17.1291C66.227 17.1291 66.3638 16.968 66.3638 16.8068V16.4154C66.3638 16.4154 67.0708 17.3594 68.5759 17.3594C71.0616 17.3594 73 15.4254 73 12.8008C73 10.1762 71.0616 8.24224 68.5987 8.24224ZM68.2338 15.2643C67.39 15.2643 66.7287 14.8268 66.3866 14.3203V11.2352C66.7287 10.7748 67.4584 10.2913 68.2338 10.2913C69.6933 10.2913 70.8107 11.2122 70.8107 12.7778C70.8107 14.3433 69.6933 15.2643 68.2338 15.2643ZM63.0571 11.995V17.1522H60.8679V12.2482C60.8679 10.8208 60.4118 10.2452 59.1803 10.2452C58.519 10.2452 57.8348 10.5906 57.4015 11.0971V17.1291H55.2123V8.47247H56.9454C57.1279 8.47247 57.2647 8.63363 57.2647 8.7948V9.16316C57.9032 8.49549 58.747 8.24224 59.5908 8.24224C60.5486 8.24224 61.3468 8.51852 61.9853 9.07107C62.7606 9.71572 63.0571 10.5445 63.0571 11.995ZM49.8988 8.24224C48.3936 8.24224 47.6867 9.16316 47.6867 9.16316V4.30531H45.4974V17.1291C45.4974 17.1291 47.185 17.1291 47.3446 17.1291C47.5271 17.1291 47.6639 16.968 47.6639 16.8068V16.4154C47.6639 16.4154 48.3708 17.3594 49.8759 17.3594C52.3617 17.3594 54.3001 15.4254 54.3001 12.8008C54.3229 10.1762 52.3845 8.24224 49.8988 8.24224ZM49.5339 15.2643C48.6901 15.2643 48.0288 14.8268 47.6867 14.3203V11.2352C48.0288 10.7748 48.7585 10.2913 49.5339 10.2913C50.9934 10.2913 52.1108 11.2122 52.1108 12.7778C52.1108 14.3433 50.9934 15.2643 49.5339 15.2643ZM43.6046 8.24224C44.266 8.24224 44.608 8.35736 44.608 8.35736V10.4064C44.608 10.4064 42.7837 9.78479 41.6434 11.0971V17.1522H39.4542V8.47247C39.4542 8.47247 41.1417 8.47247 41.3014 8.47247C41.4838 8.47247 41.6206 8.63363 41.6206 8.7948V9.16316C42.0311 8.67968 42.9205 8.24224 43.6046 8.24224ZM20.8683 16.3463C20.7542 16.0701 20.6402 15.7708 20.5262 15.5175C20.3438 15.1031 20.1613 14.7117 20.0017 14.3433L19.9789 14.3203C18.4054 10.8669 16.7178 7.36737 14.939 3.91391L14.8706 3.77578C14.6882 3.43043 14.5057 3.06206 14.3233 2.69369C14.0953 2.27928 13.8672 1.84184 13.5023 1.42743C12.7726 0.506506 11.7236 0 10.6061 0C9.46588 0 8.43967 0.506507 7.68711 1.38138C7.34504 1.7958 7.09419 2.23323 6.86614 2.64765C6.6837 3.01602 6.50126 3.38438 6.31882 3.72973L6.25041 3.86787C4.49444 7.32132 2.78408 10.8208 1.21055 14.2743L1.18775 14.3203C1.02812 14.6887 0.845677 15.0801 0.663239 15.4945C0.549215 15.7477 0.435191 16.024 0.321167 16.3233C0.0247052 17.1752 -0.0665139 17.981 0.04751 18.8098C0.298363 20.5365 1.4386 21.987 3.01213 22.6316C3.60506 22.8849 4.22078 23 4.85932 23C5.04176 23 5.2698 22.977 5.45224 22.954C6.2048 22.8619 6.98016 22.6086 7.73272 22.1712C8.66772 21.6416 9.5571 20.8819 10.5605 19.7768C11.5639 20.8819 12.4761 21.6416 13.3883 22.1712C14.1409 22.6086 14.9162 22.8619 15.6688 22.954C15.8512 22.977 16.0793 23 16.2617 23C16.9002 23 17.5388 22.8849 18.1089 22.6316C19.7052 21.987 20.8227 20.5135 21.0735 18.8098C21.256 18.004 21.1647 17.1982 20.8683 16.3463ZM10.5833 17.5435C9.35186 15.978 8.55369 14.5045 8.28004 13.2613C8.16601 12.7317 8.14321 12.2713 8.21162 11.8569C8.25723 11.4885 8.39406 11.1662 8.5765 10.8899C9.00979 10.2683 9.73954 9.87688 10.5833 9.87688C11.4271 9.87688 12.1797 10.2452 12.5901 10.8899C12.7726 11.1662 12.9094 11.4885 12.955 11.8569C13.0234 12.2713 13.0006 12.7548 12.8866 13.2613C12.6129 14.4815 11.8148 15.955 10.5833 17.5435ZM19.6824 18.6256C19.5228 19.8228 18.7246 20.8589 17.6072 21.3193C17.0599 21.5495 16.4669 21.6186 15.874 21.5495C15.3039 21.4805 14.7338 21.2963 14.1409 20.951C13.3199 20.4905 12.4989 19.7768 11.5411 18.7177C13.0462 16.8529 13.9584 15.1491 14.3005 13.6296C14.4601 12.9159 14.4829 12.2713 14.4145 11.6727C14.3233 11.0971 14.1181 10.5676 13.7988 10.1071C13.0918 9.07107 11.906 8.47247 10.5833 8.47247C9.26064 8.47247 8.07479 9.09409 7.36784 10.1071C7.04858 10.5676 6.84333 11.0971 6.75211 11.6727C6.6609 12.2713 6.6837 12.9389 6.86614 13.6296C7.20821 15.1491 8.14321 16.8759 9.62552 18.7407C8.69052 19.7998 7.84674 20.5135 7.02577 20.974C6.43285 21.3193 5.86273 21.5035 5.29261 21.5726C4.67688 21.6416 4.08396 21.5495 3.55945 21.3423C2.44201 20.8819 1.64384 19.8458 1.48421 18.6486C1.4158 18.0731 1.46141 17.4975 1.68945 16.8529C1.75787 16.6226 1.87189 16.3924 1.98592 16.1161C2.14555 15.7477 2.32799 15.3564 2.51043 14.965L2.53323 14.9189C4.10676 11.4885 5.79431 7.98899 7.55028 4.58158L7.6187 4.44344C7.80114 4.0981 7.98357 3.72973 8.16601 3.38438C8.34845 3.01602 8.55369 2.67067 8.80455 2.37137C9.28345 1.81882 9.92198 1.51952 10.6289 1.51952C11.3359 1.51952 11.9744 1.81882 12.4533 2.37137C12.7042 2.67067 12.9094 3.01602 13.0918 3.38438C13.2743 3.72973 13.4567 4.0981 13.6392 4.44344L13.7076 4.58158C15.4407 8.01201 17.1283 11.5115 18.7018 14.9419V14.965C18.8843 15.3333 19.0439 15.7477 19.2263 16.1161C19.3404 16.3924 19.4544 16.6226 19.5228 16.8529C19.7052 17.4515 19.7736 18.027 19.6824 18.6256Z" fill="#FF5A5F"/>
</svg>
