<svg width="79" height="26" viewBox="0 0 79 26" fill="none" xmlns="http://www.w3.org/2000/svg">
<path d="M33.8111 13.6848C33.8111 17.4262 30.8842 20.1832 27.2923 20.1832C23.7003 20.1832 20.7734 17.4262 20.7734 13.6848C20.7734 9.91711 23.7003 7.18652 27.2923 7.18652C30.8842 7.18652 33.8111 9.91711 33.8111 13.6848ZM30.9575 13.6848C30.9575 11.3469 29.2611 9.74718 27.2923 9.74718C25.3234 9.74718 23.6271 11.3469 23.6271 13.6848C23.6271 15.9994 25.3234 17.6225 27.2923 17.6225C29.2611 17.6225 30.9575 15.9965 30.9575 13.6848Z" fill="#EA4335"/>
<path d="M47.8736 13.6848C47.8736 17.4262 44.9467 20.1832 41.3548 20.1832C37.7628 20.1832 34.8359 17.4262 34.8359 13.6848C34.8359 9.92004 37.7628 7.18652 41.3548 7.18652C44.9467 7.18652 47.8736 9.91711 47.8736 13.6848ZM45.02 13.6848C45.02 11.3469 43.3236 9.74718 41.3548 9.74718C39.3859 9.74718 37.6896 11.3469 37.6896 13.6848C37.6896 15.9994 39.3859 17.6225 41.3548 17.6225C43.3236 17.6225 45.02 15.9965 45.02 13.6848Z" fill="#FBBC05"/>
<path d="M61.3482 7.57912V19.2456C61.3482 24.0446 58.518 26.0047 55.1721 26.0047C52.0226 26.0047 50.127 23.8982 49.4121 22.1754L51.8966 21.1412C52.339 22.1989 53.423 23.447 55.1692 23.447C57.3109 23.447 58.6381 22.1256 58.6381 19.6382V18.7036H58.5385C57.8998 19.4917 56.6693 20.1802 55.1165 20.1802C51.8673 20.1802 48.8906 17.35 48.8906 13.7083C48.8906 10.0402 51.8673 7.18652 55.1165 7.18652C56.6663 7.18652 57.8969 7.87503 58.5385 8.63971H58.6381V7.58205H61.3482V7.57912ZM58.8403 13.7083C58.8403 11.4201 57.3138 9.74718 55.3714 9.74718C53.4025 9.74718 51.753 11.4201 51.753 13.7083C51.753 15.973 53.4025 17.6225 55.3714 17.6225C57.3138 17.6225 58.8403 15.973 58.8403 13.7083Z" fill="#4285F4"/>
<path d="M65.8146 0.741211V19.785H63.0312V0.741211H65.8146Z" fill="#34A853"/>
<path d="M76.6635 15.8236L78.8784 17.3002C78.1635 18.3579 76.4408 20.1802 73.4641 20.1802C69.7726 20.1802 67.0156 17.3266 67.0156 13.6819C67.0156 9.81749 69.796 7.18359 73.1448 7.18359C76.517 7.18359 78.1665 9.8673 78.7056 11.3176L79.0015 12.0559L70.3146 15.6537C70.9797 16.9574 72.0139 17.6225 73.4641 17.6225C74.9173 17.6225 75.9252 16.9076 76.6635 15.8236ZM69.8458 13.4856L75.6527 11.0744C75.3334 10.2628 74.3724 9.69737 73.2415 9.69737C71.7912 9.69737 69.7726 10.9777 69.8458 13.4856Z" fill="#EA4335"/>
<path d="M10.2338 11.9946V9.23769H19.5242C19.6151 9.71818 19.6619 10.2866 19.6619 10.9018C19.6619 12.9703 19.0965 15.528 17.2742 17.3503C15.5016 19.1961 13.2369 20.1805 10.2368 20.1805C4.67597 20.1805 0 15.651 0 10.0903C0 4.52948 4.67597 0 10.2368 0C13.3131 0 15.5045 1.20708 17.1511 2.78039L15.2057 4.72578C14.025 3.61831 12.4253 2.75695 10.2338 2.75695C6.17311 2.75695 2.99719 6.02955 2.99719 10.0903C2.99719 14.151 6.17311 17.4236 10.2338 17.4236C12.8677 17.4236 14.3678 16.3659 15.3288 15.4049C16.1081 14.6256 16.6208 13.5123 16.823 11.9917L10.2338 11.9946Z" fill="#4285F4"/>
</svg>
