<svg width="167" height="31" viewBox="0 0 167 31" fill="none" xmlns="http://www.w3.org/2000/svg">
<path d="M52.28 25.28C51.048 25.28 49.9373 24.972 48.948 24.356C47.9587 23.74 47.184 22.9 46.624 21.836C46.064 20.772 45.784 19.5773 45.784 18.252C45.784 16.908 46.064 15.704 46.624 14.64C47.184 13.576 47.9587 12.736 48.948 12.12C49.9373 11.504 51.048 11.196 52.28 11.196C53.2507 11.196 54.1187 11.392 54.884 11.784C55.6493 12.176 56.256 12.7267 56.704 13.436C57.1707 14.1267 57.4227 14.9107 57.46 15.788V20.66C57.4227 21.556 57.1707 22.3493 56.704 23.04C56.256 23.7307 55.6493 24.2813 54.884 24.692C54.1187 25.084 53.2507 25.28 52.28 25.28ZM52.952 21.892C53.9787 21.892 54.8093 21.556 55.444 20.884C56.0787 20.1933 56.396 19.3067 56.396 18.224C56.396 17.5147 56.2467 16.8893 55.948 16.348C55.668 15.788 55.2667 15.3587 54.744 15.06C54.24 14.7427 53.6427 14.584 52.952 14.584C52.28 14.584 51.6827 14.7427 51.16 15.06C50.656 15.3587 50.2547 15.788 49.956 16.348C49.676 16.8893 49.536 17.5147 49.536 18.224C49.536 18.952 49.676 19.596 49.956 20.156C50.2547 20.6973 50.656 21.1267 51.16 21.444C51.6827 21.7427 52.28 21.892 52.952 21.892ZM56.2 25V21.36L56.788 18.056L56.2 14.808V11.476H59.84V25H56.2ZM68.7409 30.992C67.3036 30.992 66.0343 30.7307 64.9329 30.208C63.8316 29.704 62.9543 28.9853 62.3009 28.052L64.6249 25.728C65.1476 26.344 65.7263 26.8107 66.3609 27.128C67.0143 27.464 67.7983 27.632 68.7129 27.632C69.8516 27.632 70.7476 27.3427 71.4009 26.764C72.0729 26.1853 72.4089 25.3827 72.4089 24.356V20.968L73.0249 18L72.4369 15.032V11.476H76.0769V24.3C76.0769 25.644 75.7596 26.8107 75.1249 27.8C74.5089 28.808 73.6503 29.592 72.5489 30.152C71.4476 30.712 70.1783 30.992 68.7409 30.992ZM68.5729 24.636C67.3596 24.636 66.2676 24.3467 65.2969 23.768C64.3263 23.1707 63.5609 22.3587 63.0009 21.332C62.4596 20.3053 62.1889 19.1573 62.1889 17.888C62.1889 16.6187 62.4596 15.48 63.0009 14.472C63.5609 13.464 64.3263 12.6707 65.2969 12.092C66.2676 11.4947 67.3596 11.196 68.5729 11.196C69.5809 11.196 70.4676 11.392 71.2329 11.784C72.0169 12.176 72.6329 12.7173 73.0809 13.408C73.5289 14.08 73.7716 14.8733 73.8089 15.788V20.044C73.7716 20.94 73.5196 21.7427 73.0529 22.452C72.6049 23.1427 71.9889 23.684 71.2049 24.076C70.4396 24.4493 69.5623 24.636 68.5729 24.636ZM69.3009 21.304C69.9729 21.304 70.5516 21.164 71.0369 20.884C71.5409 20.5853 71.9329 20.184 72.2129 19.68C72.4929 19.1573 72.6329 18.5693 72.6329 17.916C72.6329 17.244 72.4929 16.656 72.2129 16.152C71.9329 15.648 71.5409 15.256 71.0369 14.976C70.5516 14.6773 69.9729 14.528 69.3009 14.528C68.6289 14.528 68.0409 14.6773 67.5369 14.976C67.0329 15.256 66.6409 15.6573 66.3609 16.18C66.0809 16.684 65.9409 17.2627 65.9409 17.916C65.9409 18.5507 66.0809 19.1293 66.3609 19.652C66.6409 20.156 67.0329 20.5573 67.5369 20.856C68.0409 21.1547 68.6289 21.304 69.3009 21.304ZM85.7678 25.28C84.3491 25.28 83.0891 24.9813 81.9878 24.384C80.8864 23.768 80.0091 22.928 79.3558 21.864C78.7211 20.8 78.4038 19.5867 78.4038 18.224C78.4038 16.88 78.7118 15.6853 79.3278 14.64C79.9624 13.576 80.8211 12.736 81.9038 12.12C82.9864 11.4853 84.1904 11.168 85.5158 11.168C86.8224 11.168 87.9704 11.4667 88.9598 12.064C89.9678 12.6427 90.7518 13.4453 91.3118 14.472C91.8904 15.48 92.1798 16.628 92.1798 17.916C92.1798 18.1587 92.1611 18.4107 92.1238 18.672C92.1051 18.9147 92.0584 19.1947 91.9838 19.512L80.6158 19.54V16.796L90.2758 16.768L88.7918 17.916C88.7544 17.1133 88.6051 16.4413 88.3438 15.9C88.1011 15.3587 87.7371 14.948 87.2518 14.668C86.7851 14.3693 86.2064 14.22 85.5158 14.22C84.7878 14.22 84.1531 14.388 83.6118 14.724C83.0704 15.0413 82.6504 15.4987 82.3518 16.096C82.0718 16.6747 81.9318 17.3653 81.9318 18.168C81.9318 18.9893 82.0811 19.708 82.3798 20.324C82.6971 20.9213 83.1451 21.388 83.7238 21.724C84.3024 22.0413 84.9744 22.2 85.7398 22.2C86.4304 22.2 87.0558 22.088 87.6158 21.864C88.1758 21.6213 88.6611 21.2667 89.0718 20.8L91.2278 22.956C90.5744 23.7213 89.7718 24.3 88.8198 24.692C87.8864 25.084 86.8691 25.28 85.7678 25.28ZM103.548 25V17.244C103.548 16.4413 103.296 15.788 102.792 15.284C102.288 14.78 101.635 14.528 100.832 14.528C100.31 14.528 99.8429 14.64 99.4322 14.864C99.0216 15.088 98.6949 15.4053 98.4522 15.816C98.2282 16.2267 98.1162 16.7027 98.1162 17.244L96.6882 16.516C96.6882 15.452 96.9122 14.528 97.3602 13.744C97.8269 12.9413 98.4616 12.316 99.2642 11.868C100.086 11.42 101.01 11.196 102.036 11.196C103.026 11.196 103.912 11.448 104.696 11.952C105.48 12.4373 106.096 13.0813 106.544 13.884C106.992 14.668 107.216 15.5173 107.216 16.432V25H103.548ZM94.4482 25V11.476H98.1162V25H94.4482ZM116.555 25.28C115.174 25.28 113.932 24.972 112.831 24.356C111.73 23.74 110.862 22.9 110.227 21.836C109.592 20.772 109.275 19.5773 109.275 18.252C109.275 16.908 109.592 15.704 110.227 14.64C110.862 13.576 111.73 12.736 112.831 12.12C113.951 11.4853 115.192 11.168 116.555 11.168C117.619 11.168 118.599 11.364 119.495 11.756C120.391 12.148 121.166 12.708 121.819 13.436L119.467 15.816C119.112 15.424 118.683 15.1253 118.179 14.92C117.694 14.7147 117.152 14.612 116.555 14.612C115.883 14.612 115.276 14.7707 114.735 15.088C114.212 15.3867 113.792 15.8067 113.475 16.348C113.176 16.8707 113.027 17.496 113.027 18.224C113.027 18.9333 113.176 19.568 113.475 20.128C113.792 20.6693 114.212 21.0987 114.735 21.416C115.276 21.7147 115.883 21.864 116.555 21.864C117.171 21.864 117.722 21.7613 118.207 21.556C118.711 21.332 119.14 21.0147 119.495 20.604L121.875 22.984C121.184 23.7307 120.391 24.3 119.495 24.692C118.599 25.084 117.619 25.28 116.555 25.28ZM128.208 25.112L122.552 11.476H126.528L130.28 21.892H128.936L132.828 11.476H136.832L130.812 25.112H128.208ZM124.456 30.656L128.572 21.948L130.812 25.112L128.348 30.656H124.456ZM139.296 25.28C138.624 25.28 138.074 25.056 137.644 24.608C137.215 24.16 137 23.6093 137 22.956C137 22.3027 137.215 21.752 137.644 21.304C138.074 20.856 138.624 20.632 139.296 20.632C139.95 20.632 140.491 20.856 140.92 21.304C141.35 21.752 141.564 22.3027 141.564 22.956C141.564 23.6093 141.35 24.16 140.92 24.608C140.491 25.056 139.95 25.28 139.296 25.28Z" fill="white"/>
<path d="M150.28 25.28C149.048 25.28 147.937 24.972 146.948 24.356C145.959 23.74 145.184 22.9 144.624 21.836C144.064 20.772 143.784 19.5773 143.784 18.252C143.784 16.908 144.064 15.704 144.624 14.64C145.184 13.576 145.959 12.736 146.948 12.12C147.937 11.504 149.048 11.196 150.28 11.196C151.251 11.196 152.119 11.392 152.884 11.784C153.649 12.176 154.256 12.7267 154.704 13.436C155.171 14.1267 155.423 14.9107 155.46 15.788V20.66C155.423 21.556 155.171 22.3493 154.704 23.04C154.256 23.7307 153.649 24.2813 152.884 24.692C152.119 25.084 151.251 25.28 150.28 25.28ZM150.952 21.892C151.979 21.892 152.809 21.556 153.444 20.884C154.079 20.1933 154.396 19.3067 154.396 18.224C154.396 17.5147 154.247 16.8893 153.948 16.348C153.668 15.788 153.267 15.3587 152.744 15.06C152.24 14.7427 151.643 14.584 150.952 14.584C150.28 14.584 149.683 14.7427 149.16 15.06C148.656 15.3587 148.255 15.788 147.956 16.348C147.676 16.8893 147.536 17.5147 147.536 18.224C147.536 18.952 147.676 19.596 147.956 20.156C148.255 20.6973 148.656 21.1267 149.16 21.444C149.683 21.7427 150.28 21.892 150.952 21.892ZM154.2 25V21.36L154.788 18.056L154.2 14.808V11.476H157.84V25H154.2ZM161.085 25V11.476H164.781V25H161.085ZM162.933 9.292C162.336 9.292 161.841 9.096 161.449 8.704C161.057 8.29333 160.861 7.78933 160.861 7.192C160.861 6.61333 161.057 6.11867 161.449 5.708C161.841 5.29733 162.336 5.092 162.933 5.092C163.549 5.092 164.044 5.29733 164.417 5.708C164.809 6.11867 165.005 6.61333 165.005 7.192C165.005 7.78933 164.809 8.29333 164.417 8.704C164.044 9.096 163.549 9.292 162.933 9.292Z" fill="url(#paint0_linear_8793_4607)"/>
<path d="M13.2371 0H31.2418L18.0047 19.62H0L13.2371 0Z" fill="#147AFF"/>
<path d="M14.0333 21.4396L8.90625 29.0389H27.765L41.0021 9.41895H27.0832L18.9731 21.4396H14.0333Z" fill="#5044E5"/>
<defs>
<linearGradient id="paint0_linear_8793_4607" x1="45" y1="14.5" x2="167" y2="14.5" gradientUnits="userSpaceOnUse">
<stop stop-color="#147AFF"/>
<stop offset="1" stop-color="#5044E5"/>
</linearGradient>
</defs>
</svg>
