<svg width="63" height="63" viewBox="0 0 63 63" fill="none" xmlns="http://www.w3.org/2000/svg">
<path d="M34.8704 24.416C34.4261 24.416 34.0001 24.5897 33.6859 24.899C33.3718 25.2082 33.1953 25.6276 33.1953 26.0649C33.1953 26.5022 33.3718 26.9216 33.6859 27.2308C34.0001 27.54 34.4261 27.7138 34.8704 27.7138H41.5705C42.0148 27.7138 42.4408 27.54 42.755 27.2308C43.0691 26.9216 43.2456 26.5022 43.2456 26.0649C43.2456 25.6276 43.0691 25.2082 42.755 24.899C42.4408 24.5897 42.0148 24.416 41.5705 24.416H34.8704Z" fill="#1D4ED8" fill-opacity="0.13"/>
<path d="M34.8704 39.2559C34.4261 39.2559 34.0001 39.4296 33.6859 39.7388C33.3718 40.048 33.1953 40.4674 33.1953 40.9047C33.1953 41.342 33.3718 41.7614 33.6859 42.0707C34.0001 42.3799 34.4261 42.5536 34.8704 42.5536H41.5705C42.0148 42.5536 42.4408 42.3799 42.755 42.0707C43.0691 41.7614 43.2456 41.342 43.2456 40.9047C43.2456 40.4674 43.0691 40.048 42.755 39.7388C42.4408 39.4296 42.0148 39.2559 41.5705 39.2559H34.8704Z" fill="#1D4ED8" fill-opacity="0.13"/>
<path d="M34.8704 19.4688C34.4261 19.4688 34.0001 19.6425 33.6859 19.9517C33.3718 20.2609 33.1953 20.6803 33.1953 21.1176C33.1953 21.5549 33.3718 21.9743 33.6859 22.2835C34.0001 22.5928 34.4261 22.7665 34.8704 22.7665H48.2707C48.7149 22.7665 49.141 22.5928 49.4551 22.2835C49.7693 21.9743 49.9457 21.5549 49.9457 21.1176C49.9457 20.6803 49.7693 20.2609 49.4551 19.9517C49.141 19.6425 48.7149 19.4688 48.2707 19.4688H34.8704Z" fill="#1D4ED8" fill-opacity="0.5"/>
<path d="M34.8704 34.3086C34.4261 34.3086 34.0001 34.4823 33.6859 34.7915C33.3718 35.1008 33.1953 35.5202 33.1953 35.9575C33.1953 36.3948 33.3718 36.8142 33.6859 37.1234C34.0001 37.4326 34.4261 37.6063 34.8704 37.6063H48.2707C48.7149 37.6063 49.141 37.4326 49.4551 37.1234C49.7693 36.8142 49.9457 36.3948 49.9457 35.9575C49.9457 35.5202 49.7693 35.1008 49.4551 34.7915C49.141 34.4823 48.7149 34.3086 48.2707 34.3086H34.8704Z" fill="#1D4ED8" fill-opacity="0.5"/>
<path d="M19.6204 17.8232C19.1761 17.8232 18.7501 17.997 18.4359 18.3062C18.1218 18.6154 17.9453 19.0348 17.9453 19.4721V27.7165C17.9453 28.1538 18.1218 28.5732 18.4359 28.8824C18.7501 29.1916 19.1761 29.3653 19.6204 29.3653H27.9956C28.4398 29.3653 28.8659 29.1916 29.18 28.8824C29.4941 28.5732 29.6706 28.1538 29.6706 27.7165V19.4721C29.6706 19.0348 29.4941 18.6154 29.18 18.3062C28.8659 17.997 28.4398 17.8232 27.9956 17.8232H19.6204V17.8232Z" fill="#1D4ED8"/>
<path d="M19.6204 32.6562C19.1761 32.6562 18.7501 32.83 18.4359 33.1392C18.1218 33.4484 17.9453 33.8678 17.9453 34.3051V42.5495C17.9453 42.9868 18.1218 43.4062 18.4359 43.7154C18.7501 44.0246 19.1761 44.1983 19.6204 44.1983H27.9956C28.4398 44.1983 28.8659 44.0246 29.18 43.7154C29.4941 43.4062 29.6706 42.9868 29.6706 42.5495V34.3051C29.6706 33.8678 29.4941 33.4484 29.18 33.1392C28.8659 32.83 28.4398 32.6562 27.9956 32.6562H19.6204V32.6562Z" fill="#1D4ED8"/>
</svg>
