<svg width="18" height="18" viewBox="0 0 18 18" fill="none" xmlns="http://www.w3.org/2000/svg">
<path d="M16.4776 14.7658C15.5136 13.0739 14.0083 11.7555 12.204 11.023C13.1012 10.3501 13.764 9.41192 14.0984 8.34138C14.4328 7.27084 14.4219 6.12221 14.0673 5.0582C13.7126 3.9942 13.0321 3.06876 12.1223 2.41297C11.2124 1.75718 10.1193 1.4043 8.99773 1.4043C7.87617 1.4043 6.78304 1.75718 5.87318 2.41297C4.96333 3.06876 4.28287 3.9942 3.9282 5.0582C3.57353 6.12221 3.56263 7.27084 3.89705 8.34138C4.23146 9.41192 4.89423 10.3501 5.79148 11.023C3.9872 11.7555 2.4819 13.0739 1.51788 14.7658C1.45815 14.8618 1.41834 14.9689 1.40081 15.0807C1.38329 15.1924 1.38841 15.3065 1.41587 15.4162C1.44334 15.526 1.49258 15.629 1.56068 15.7194C1.62878 15.8097 1.71434 15.8854 1.81228 15.942C1.91022 15.9985 2.01853 16.0349 2.13078 16.0487C2.24304 16.0626 2.35693 16.0538 2.46571 16.0228C2.57448 15.9918 2.67591 15.9392 2.76397 15.8682C2.85202 15.7972 2.9249 15.7093 2.97827 15.6095C4.25234 13.4073 6.50234 12.0939 8.99773 12.0939C11.4931 12.0939 13.7431 13.408 15.0172 15.6095C15.1329 15.7955 15.3163 15.9293 15.5288 15.9824C15.7413 16.0356 15.9661 16.0041 16.1558 15.8945C16.3454 15.7849 16.485 15.6059 16.5451 15.3953C16.6051 15.1846 16.5809 14.9589 16.4776 14.7658ZM5.34148 6.75016C5.34148 6.02702 5.55591 5.32012 5.95767 4.71885C6.35942 4.11759 6.93045 3.64895 7.59854 3.37222C8.26663 3.09549 9.00178 3.02308 9.71103 3.16416C10.4203 3.30524 11.0718 3.65346 11.5831 4.1648C12.0944 4.67613 12.4426 5.32761 12.5837 6.03686C12.7248 6.7461 12.6524 7.48125 12.3757 8.14934C12.0989 8.81743 11.6303 9.38846 11.029 9.79022C10.4278 10.192 9.72087 10.4064 8.99773 10.4064C8.02837 10.4053 7.09904 10.0197 6.4136 9.33428C5.72816 8.64884 5.34259 7.71951 5.34148 6.75016Z" fill="#475569"/>
</svg>
