<svg width="63" height="63" viewBox="0 0 63 63" fill="none" xmlns="http://www.w3.org/2000/svg">
<path d="M43.5579 25.3526C43.5696 25.6082 43.5755 25.8649 43.5755 26.1228C43.5755 33.9889 37.4926 43.0587 26.3714 43.0587C22.9564 43.0587 19.7775 42.0732 17.1016 40.3842C17.5752 40.4395 18.0559 40.4677 18.5442 40.4677C21.3775 40.4677 23.9844 39.5161 26.0545 37.9193C23.4078 37.8715 21.1751 36.1504 20.4056 33.7857C20.7752 33.8553 21.1535 33.8927 21.5436 33.8927C22.0944 33.8927 22.6289 33.8197 23.1365 33.6838C20.3705 33.1369 18.2857 30.7313 18.2857 27.8474C18.2857 27.822 18.2857 27.7973 18.2863 27.7725C19.1015 28.2181 20.0337 28.4858 21.0254 28.5168C19.4027 27.4496 18.3354 25.6277 18.3354 23.5623C18.3354 22.4715 18.633 21.4492 19.1541 20.5701C22.1364 24.1713 26.5912 26.5406 31.6168 26.7893C31.5139 26.3535 31.46 25.8994 31.46 25.4326C31.46 22.1457 34.1675 19.4805 37.5066 19.4805C39.2469 19.4805 40.8176 20.2035 41.9205 21.3599C43.2982 21.0934 44.5917 20.5978 45.7601 19.9156C45.3086 21.3058 44.3508 22.472 43.1017 23.2088C44.325 23.0649 45.4911 22.7449 46.5752 22.2717C45.7648 23.4651 44.7392 24.5133 43.5579 25.3526Z" fill="#1D4ED8"/>
</svg>
